<svg width="1678" height="512" viewBox="0 0 1678 512" fill="none" xmlns="http://www.w3.org/2000/svg">
<path fill-rule="evenodd" clip-rule="evenodd" d="M392.034 238.3C398.503 246.784 398.595 258.518 392.261 267.103L248.262 462.249C240.392 472.914 225.366 475.18 214.7 467.31C204.035 459.44 201.769 444.414 209.639 433.749L342.949 253.089L209.865 78.5532C201.829 68.013 203.858 52.9532 214.398 44.9163C224.938 36.8794 239.998 38.9088 248.035 49.449L392.034 238.3ZM211.05 209.344L211.05 305.344H163.05C136.541 305.344 115.051 283.853 115.051 257.344C115.051 230.834 136.541 209.344 163.05 209.344H211.05Z" fill="black"/>
<path d="M655.936 371.861H545.594V128.384H663.864C693.707 128.824 714.85 137.469 727.294 154.317C734.782 164.669 738.526 177.057 738.526 191.483C738.526 206.349 734.782 218.298 727.294 227.328C723.109 232.393 716.943 237.018 708.794 241.203C721.237 245.718 730.598 252.876 736.875 262.676C743.262 272.477 746.455 284.37 746.455 298.356C746.455 312.782 742.821 325.721 735.553 337.173C730.928 344.772 725.147 351.159 718.209 356.334C710.39 362.281 701.14 366.355 690.459 368.558C679.887 370.76 668.379 371.861 655.936 371.861ZM654.779 264.659H594.158V329.575H653.953C664.635 329.575 672.949 328.143 678.896 325.28C689.688 319.994 695.084 309.863 695.084 294.887C695.084 282.223 689.853 273.523 679.391 268.788C673.555 266.145 665.351 264.769 654.779 264.659ZM680.052 218.243C686.659 214.278 689.963 207.175 689.963 196.934C689.963 185.592 685.558 178.103 676.748 174.469C669.15 171.937 659.459 170.67 647.677 170.67H594.158V224.354H653.953C664.635 224.354 673.335 222.317 680.052 218.243ZM939.552 319.003C938.341 329.685 932.78 340.532 922.869 351.544C907.452 369.053 885.868 377.808 858.118 377.808C835.213 377.808 815.006 370.43 797.496 355.674C779.987 340.917 771.232 316.911 771.232 283.654C771.232 252.49 779.106 228.594 794.853 211.966C810.711 195.337 831.248 187.023 856.466 187.023C871.443 187.023 884.932 189.831 896.936 195.447C908.939 201.064 918.85 209.928 926.668 222.042C933.716 232.723 938.286 245.112 940.378 259.208C941.59 267.467 942.085 279.36 941.865 294.887H818.64C819.3 312.947 824.971 325.611 835.653 332.879C842.15 337.394 849.969 339.651 859.109 339.651C868.8 339.651 876.673 336.898 882.73 331.392C886.034 328.419 888.952 324.289 891.485 319.003H939.552ZM892.971 263.833C892.2 251.389 888.401 241.974 881.574 235.587C874.856 229.089 866.487 225.841 856.466 225.841C845.564 225.841 837.085 229.255 831.028 236.082C825.082 242.91 821.337 252.16 819.796 263.833H892.971ZM1112.66 371.861H957.227V335.191L1049.56 230.136H963.504V191.813H1109.52V230.962L1018.18 333.209H1112.66V371.861ZM1191.29 191.813V371.861H1143.55V191.813H1191.29ZM1191.29 126.897V170.34H1143.55V126.897H1191.29ZM1391.16 319.003C1389.95 329.685 1384.39 340.532 1374.48 351.544C1359.06 369.053 1337.48 377.808 1309.72 377.808C1286.82 377.808 1266.61 370.43 1249.1 355.674C1231.59 340.917 1222.84 316.911 1222.84 283.654C1222.84 252.49 1230.71 228.594 1246.46 211.966C1262.32 195.337 1282.86 187.023 1308.07 187.023C1323.05 187.023 1336.54 189.831 1348.54 195.447C1360.55 201.064 1370.46 209.928 1378.27 222.042C1385.32 232.723 1389.89 245.112 1391.99 259.208C1393.2 267.467 1393.69 279.36 1393.47 294.887H1270.25C1270.91 312.947 1276.58 325.611 1287.26 332.879C1293.76 337.394 1301.58 339.651 1310.72 339.651C1320.41 339.651 1328.28 336.898 1334.34 331.392C1337.64 328.419 1340.56 324.289 1343.09 319.003H1391.16ZM1344.58 263.833C1343.81 251.389 1340.01 241.974 1333.18 235.587C1326.46 229.089 1318.09 225.841 1308.07 225.841C1297.17 225.841 1288.69 229.255 1282.63 236.082C1276.69 242.91 1272.94 252.16 1271.4 263.833H1344.58ZM1515.87 235.256C1496.93 235.256 1484.21 241.423 1477.71 253.757C1474.08 260.694 1472.26 271.376 1472.26 285.802V371.861H1424.86V191.813H1469.79V223.198C1477.05 211.195 1483.39 202.991 1488.78 198.586C1497.59 191.208 1509.04 187.519 1523.14 187.519C1524.02 187.519 1524.74 187.574 1525.29 187.684C1525.95 187.684 1527.32 187.739 1529.42 187.849V236.082C1526.44 235.752 1523.8 235.532 1521.49 235.421C1519.17 235.311 1517.3 235.256 1515.87 235.256Z" fill="black"/>
</svg>
